Coordinates
version=1
nRows=12
nColumns=24
inDegrees=yes

Units are S.I. units (second, meters, Newtons, ...)
Angles are in degrees.

endheader
time	pelvis_tilt	pelvis_list	pelvis_rotation	pelvis_tx	pelvis_ty	pelvis_tz	hip_flexion_r	hip_adduction_r	hip_rotation_r	knee_angle_r	ankle_angle_r	subtalar_angle_r	mtp_angle_r	hip_flexion_l	hip_adduction_l	hip_rotation_l	knee_angle_l	ankle_angle_l	subtalar_angle_l	mtp_angle_l	lumbar_extension	lumbar_bending	lumbar_rotation
      6.67500000	     13.41872418	      3.19329678	      1.07773246	      2.53446451	      0.94350274	     -0.29305814	     -0.73621545	     -6.86600806	     -6.34789359	    -67.98078218	      1.23188883	      3.86061758	      0.00000000	     -9.92692282	      6.66647558	     11.63565232	    -11.71237526	     15.89835550	     -6.47038731	      0.00000000	    -27.36478389	     -3.30167758	      0.73910405
      6.68000000	     13.46989416	      2.97113025	      1.36712241	      2.54018226	      0.94415999	     -0.29352630	     -0.09814834	     -6.59074292	     -6.67131161	    -67.75080490	      2.57573539	      3.37719701	      0.00000000	    -10.54062920	      6.33890600	     11.77264374	    -11.34309904	     16.06950624	     -6.32010111	      0.00000000	    -27.46474104	     -2.89415124	      0.33512396
      6.68500000	     13.51791508	      2.75877488	      1.64801306	      2.54593498	      0.94479801	     -0.29397220	      0.52456694	     -6.32861167	     -6.98823930	    -67.42544632	      3.90236176	      2.91470421	      0.00000000	    -11.16017260	      6.01582700	     11.88528693	    -10.94770009	     16.16781130	     -6.18361297	      0.00000000	    -27.55017156	     -2.50512475	     -0.01371065
      6.69000000	     13.50413332	      2.53077428	      1.85108676	      2.55169291	      0.94532689	     -0.29431893	      1.22599400	     -6.04642405	     -7.20205368	    -67.02967946	      5.18597698	      2.51253222	      0.00000000	    -11.71469057	      5.68910706	     11.91576550	    -10.53720089	     16.25255865	     -6.06171083	      0.00000000	    -27.55778521	     -2.13830209	     -0.26628835
      6.69500000	     13.56792330	      2.33868327	      2.18593990	      2.55737808	      0.94588471	     -0.29480180	      1.79223085	     -5.81233484	     -7.58036767	    -66.52521002	      6.41207823	      2.02578877	      0.00000000	    -12.33187042	      5.36670108	     12.02787855	    -10.16498206	     16.39141354	     -5.86283066	      0.00000000	    -27.66776902	     -1.74836481	     -0.69249161
      6.70000000	     13.57451954	      2.12435854	      2.43457061	      2.56310128	      0.94633899	     -0.29517218	      2.42738611	     -5.54799100	     -7.84233542	    -65.94855088	      7.58543398	      1.61916912	      0.00000000	    -12.89375634	      5.03728833	     12.06486256	     -9.77334607	     16.51861366	     -5.69993989	      0.00000000	    -27.70094812	     -1.37543529	     -1.00385312
      6.70500000	     13.60695561	      1.93923509	      2.72966908	      2.56877952	      0.94678704	     -0.29558092	      3.00457826	     -5.32221975	     -8.16093226	    -65.27834978	      8.70122599	      1.20896909	      0.00000000	    -13.47341891	      4.72201100	     12.10216725	     -9.39168043	     16.59984995	     -5.51089633	      0.00000000	    -27.77130166	     -1.01393733	     -1.36740841
      6.71000000	     13.59341202	      1.74160967	      2.96482915	      2.57446292	      0.94711549	     -0.29593913	      3.63243305	     -5.08400426	     -8.40119105	    -64.54188629	      9.76265884	      0.86827442	      0.00000000	    -13.99980382	      4.41203618	     12.08663921	     -9.01445006	     16.71732759	     -5.36325009	      0.00000000	    -27.78422658	     -0.66201067	     -1.65938303
      6.71500000	     13.63877768	      1.58255596	      3.27813011	      2.58011673	      0.94748950	     -0.29631025	      4.15081803	     -4.88233812	     -8.71741643	    -63.69990610	     10.75230600	      0.50288489	      0.00000000	    -14.58336132	      4.10895027	     12.12029441	     -8.64235297	     16.78746756	     -5.14398234	      0.00000000	    -27.87255726	     -0.32766028	     -2.05170662
      6.72000000	     13.61800016	      1.40665273	      3.50916235	      2.58578626	      0.94771066	     -0.29663322	      4.74509929	     -4.66685869	     -8.93300949	    -62.80043342	     11.69547782	      0.23577656	      0.00000000	    -15.09288485	      3.81863414	     12.08414337	     -8.27633898	     16.90121535	     -4.99485552	      0.00000000	    -27.87804350	     -0.00463160	     -2.33461135
      6.72500000	     13.64334029	      1.26437513	      3.79955814	      2.59142955	      0.94796063	     -0.29694530	      5.24666718	     -4.48156290	     -9.20097530	    -61.80074235	     12.56979334	     -0.04612641	      0.00000000	    -15.64529129	      3.53404778	     12.08500585	     -7.91698115	     16.97551647	     -4.77458464	      0.00000000	    -27.94520986	      0.29804280	     -2.70402102
      6.73000000	     13.62684705	      1.11900569	      4.03632290	      2.59707013	      0.94808760	     -0.29723792	      5.78768875	     -4.29660363	     -9.39671293	    -60.74200285	     13.40354634	     -0.22820177	      0.00000000	    -16.14632182	      3.27070428	     12.03024883	     -7.57152886	     17.07284992	     -4.63084791	      0.00000000	    -27.96191523	      0.58755380	     -2.99691649
